<svg width="24" height="7" viewBox="0 0 24 7" fill="none" xmlns="http://www.w3.org/2000/svg">
<path d="M21 7C22.6562 7 24 5.58553 24 3.84211C24 2.09869 22.6563 0.684213 21 0.684212C19.3438 0.684212 18 2.09869 18 3.84211C18 5.58553 19.3438 7 21 7ZM12 7C13.6562 7 15 5.58553 15 3.84211C15 2.09868 13.6563 0.684212 12 0.684212C10.3438 0.684211 9 2.09868 9 3.84211C9 5.58553 10.3438 7 12 7ZM3 7C4.65625 7 6 5.58553 6 3.8421C6 2.09868 4.65625 0.684211 3 0.684211C1.34375 0.684211 4.28487e-07 2.09868 2.76072e-07 3.8421C1.23657e-07 5.58552 1.34375 7 3 7Z" fill="white"/>
</svg>
