<svg width="13" height="17" viewBox="0 0 13 17" fill="none" xmlns="http://www.w3.org/2000/svg">
<path d="M13 5.37891L11.5556 6.41927L11.5556 9.20833C11.5556 11.563 9.62305 13.4583 7.22222 13.4583L4.33333 13.4583L4.33333 11.3333L0.383682 14.1667L4.33333 17L4.33333 14.875L7.22222 14.875C10.4045 14.875 13 12.3294 13 9.20833L13 5.37891ZM12.6163 2.83333L8.66667 -1.89416e-07L8.66667 2.125L5.77778 2.125C2.59549 2.125 7.49517e-07 4.67057 6.1309e-07 7.79167L4.457e-07 11.6211L1.44445 10.5807L1.44445 7.79167C1.44445 5.43701 3.37695 3.54167 5.77778 3.54167L8.66667 3.54167L8.66667 5.66667L12.6163 2.83333Z" fill="white"/>
</svg>
