<svg width="36" height="17" viewBox="0 0 36 17" fill="none" xmlns="http://www.w3.org/2000/svg">
<path d="M36 5.37891L34.5556 6.41927L34.5556 9.20833C34.5556 11.563 32.623 13.4583 30.2222 13.4583L27.3333 13.4583L27.3333 11.3333L23.3837 14.1667L27.3333 17L27.3333 14.875L30.2222 14.875C33.4045 14.875 36 12.3294 36 9.20833L36 5.37891ZM35.6163 2.83333L31.6667 -1.89416e-07L31.6667 2.125L28.7778 2.125C25.5955 2.125 23 4.67057 23 7.79167L23 11.6211L24.4444 10.5807L24.4444 7.79167C24.4444 5.43701 26.377 3.54167 28.7778 3.54167L31.6667 3.54167L31.6667 5.66667L35.6163 2.83333Z" fill="white"/>
<path d="M9.75 2C9.23283 2 8.73684 2.20545 8.37114 2.57114C8.00545 2.93684 7.8 3.43283 7.8 3.95C7.8004 4.0723 7.8123 4.19429 7.83555 4.31436L3.21064 7.01211C2.85838 6.7137 2.41167 6.54995 1.95 6.55C1.43283 6.55 0.936838 6.75545 0.571142 7.12114C0.205446 7.48684 0 7.98283 0 8.5C0 9.01717 0.205446 9.51316 0.571142 9.87886C0.936838 10.2446 1.43283 10.45 1.95 10.45C2.41096 10.4491 2.85669 10.2849 3.20811 9.98662L7.83555 12.6856C7.8123 12.8057 7.8004 12.9277 7.8 13.05C7.8 13.5672 8.00545 14.0632 8.37114 14.4289C8.73684 14.7946 9.23283 15 9.75 15C10.2672 15 10.7632 14.7946 11.1289 14.4289C11.4946 14.0632 11.7 13.5672 11.7 13.05C11.7 12.5328 11.4946 12.0368 11.1289 11.6711C10.7632 11.3054 10.2672 11.1 9.75 11.1C9.28861 11.1006 8.84238 11.2648 8.49062 11.5634L3.86445 8.86436C3.8877 8.74429 3.8996 8.6223 3.9 8.5C3.8996 8.3777 3.8877 8.25571 3.86445 8.13564L8.48936 5.43789C8.84162 5.7363 9.28833 5.90005 9.75 5.9C10.2672 5.9 10.7632 5.69455 11.1289 5.32886C11.4946 4.96316 11.7 4.46717 11.7 3.95C11.7 3.43283 11.4946 2.93684 11.1289 2.57114C10.7632 2.20545 10.2672 2 9.75 2Z" fill="white"/>
</svg>
