<svg width="33" height="30" viewBox="0 0 33 30" fill="none" xmlns="http://www.w3.org/2000/svg">
<path d="M22.9 0C28.1877 0 32.5 4.31228 32.5 9.6C32.5 14.8877 28.1877 19.2 22.9 19.2C20.4713 19.2 18.254 18.2844 16.5602 16.7883L15.7 17.6484V19.2L-11 44L-9 37.5L13.3 16.8H14.8516L15.7117 15.9398C14.2156 14.246 13.3 12.0287 13.3 9.6C13.3 4.31228 17.6123 0 22.9 0ZM22.9 2.4C18.9093 2.4 15.7 5.60934 15.7 9.6C15.7 13.5907 18.9093 16.8 22.9 16.8C26.8907 16.8 30.1 13.5907 30.1 9.6C30.1 5.60934 26.8907 2.4 22.9 2.4Z" fill="#312F2F"/>
</svg>
